<svg width="102" height="110" viewBox="0 0 102 110" fill="none" xmlns="http://www.w3.org/2000/svg">
<path d="M37.5219 10.0498C12.5005 17.0498 -4 41.9122 1.00609 69.4806L10.83 109.95H51.2993C79.1964 109.95 101.889 87.257 101.889 59.3599V18.8906H82.3074L77.506 0.0498047L37.5219 10.0498ZM96.4112 59.3599C96.4112 84.2303 76.1834 104.472 51.2993 104.472H20.1975L30.5785 94.0909H57.0923L65.4875 85.6957C67.0487 86.6133 68.8702 87.1337 70.8012 87.1337C76.6217 87.1337 81.3602 82.3952 81.3602 76.561C81.3602 70.7269 76.6217 66.002 70.8012 66.002C64.9808 66.002 60.2422 70.7406 60.2422 76.561C60.2422 78.4646 60.7489 80.245 61.6391 81.7926L54.819 88.6128H36.0565L69.0345 55.6211C70.5821 56.525 72.3898 57.0454 74.3072 57.0454C80.1276 57.0454 84.8661 52.3069 84.8661 46.4864C84.8661 40.666 80.1276 35.9137 74.3072 35.9137C68.4867 35.9137 63.7482 40.6523 63.7482 46.4864C63.7482 48.4037 64.2686 50.2115 65.1588 51.7591L43 73.9179V62.6741C47.5057 61.4552 50.8199 57.3467 50.8199 52.4712C50.8199 46.6508 46.0814 41.9122 40.261 41.9122C34.4405 41.9122 29.702 46.6508 29.702 52.4712C29.702 57.3467 33.0162 61.4552 37.5219 62.6741V79.3959L16.3081 100.61V69.4806C16.3081 44.6102 36.5496 24.3687 61.42 24.3687H96.4112V59.3599ZM65.7203 76.561C65.7203 73.7672 67.9937 71.4801 70.8012 71.4801C73.6087 71.4801 75.8821 73.7672 75.8821 76.561C75.8821 79.3548 73.595 81.6556 70.8012 81.6556C70.4178 81.6556 70.0343 81.6146 69.6645 81.5187C67.7472 81.0804 66.2407 79.5466 65.8162 77.6156C65.7614 77.2732 65.7203 76.9171 65.7203 76.561ZM37.5219 56.7304C36.1113 55.8402 35.18 54.2653 35.18 52.4712C35.18 49.6774 37.4535 47.3903 40.261 47.3903C43.0685 47.3903 45.3419 49.6774 45.3419 52.4712C45.3419 54.2653 44.4106 55.8402 43 56.7304C42.2057 57.2508 41.2744 57.5521 40.261 57.5521C39.2475 57.5521 38.3162 57.2508 37.5219 56.7304ZM69.2263 46.4864C69.2263 43.6789 71.4997 41.3918 74.3072 41.3918C77.1147 41.3918 79.3881 43.6789 79.3881 46.4864C79.3881 49.2939 77.1147 51.5673 74.3072 51.5673C73.9374 51.5673 73.5677 51.5262 73.2116 51.4441C71.2806 51.0195 69.7741 49.4993 69.3358 47.582C69.2673 47.2259 69.2263 46.8562 69.2263 46.4864Z" fill="#00CE8B"/>
</svg>